<svg width="76" height="24" viewBox="0 0 76 24" fill="none" xmlns="http://www.w3.org/2000/svg">
<path d="M9.43076 8.5716V11.1113H15.4664C15.2778 12.5717 14.7749 13.5876 14.0833 14.3495C13.2031 15.2384 11.8199 16.2543 9.36788 16.2543C5.65845 16.2543 2.70348 13.2066 2.70348 9.39702C2.70348 5.58742 5.65845 2.60323 9.43076 2.60323C11.4427 2.60323 12.8887 3.42864 14.0204 4.44454L15.7808 2.66672C14.2719 1.14288 12.26 0 9.43076 0C4.33815 0 0 4.25406 0 9.39702C0 14.54 4.27528 18.794 9.43076 18.794C12.1971 18.794 14.2719 17.9051 15.9065 16.1908C17.6041 14.4765 18.1071 12.1272 18.1071 10.1589C18.1071 9.5875 18.0442 9.01606 17.9813 8.5716H9.43076Z" fill="#212121"/>
<path d="M25.6519 6.47559C22.3197 6.47559 19.6162 9.01532 19.6162 12.571C19.6162 16.0631 22.3197 18.6663 25.6519 18.6663C28.9841 18.6663 31.6876 16.1266 31.6876 12.571C31.6876 9.01532 28.9841 6.47559 25.6519 6.47559ZM25.6519 16.1901C23.8286 16.1901 22.2568 14.6662 22.2568 12.5075C22.2568 10.3487 23.8286 8.82484 25.6519 8.82484C27.4752 8.82484 29.047 10.3487 29.047 12.5075C29.047 14.7297 27.4752 16.1901 25.6519 16.1901Z" fill="#212121"/>
<path d="M55.138 7.80895H55.0751C54.5093 7.11052 53.3776 6.47559 51.9315 6.47559C48.9137 6.47559 46.3359 9.14231 46.3359 12.571C46.3359 15.9996 48.9765 18.6663 51.9315 18.6663C53.3776 18.6663 54.5093 18.0314 55.0751 17.2695H55.138V18.0949C55.138 20.4441 53.8805 21.6505 51.9315 21.6505C50.2969 21.6505 49.2909 20.5076 48.9137 19.4917L46.6503 20.4441C47.3419 22.0315 49.0394 23.9998 51.9944 23.9998C55.0751 23.9998 57.7157 22.1585 57.7157 17.6504V6.79305H55.2008V7.80895H55.138ZM52.1201 16.1901C50.2969 16.1901 48.9137 14.6027 48.9137 12.5075C48.9137 10.3487 50.2969 8.82484 52.1201 8.82484C53.9434 8.82484 55.3266 10.4122 55.3266 12.5075C55.3266 14.6662 53.9434 16.1901 52.1201 16.1901Z" fill="#212121"/>
<path d="M39.106 6.47559C35.7738 6.47559 33.0703 9.01532 33.0703 12.571C33.0703 16.0631 35.7738 18.6663 39.106 18.6663C42.4382 18.6663 45.1417 16.1266 45.1417 12.571C45.0788 9.01532 42.3753 6.47559 39.106 6.47559ZM39.106 16.1901C37.2827 16.1901 35.7109 14.6662 35.7109 12.5075C35.7109 10.3487 37.2827 8.82484 39.106 8.82484C40.9293 8.82484 42.5011 10.3487 42.5011 12.5075C42.5011 14.7297 40.9293 16.1901 39.106 16.1901Z" fill="#212121"/>
<path d="M59.7285 0.253906H62.3063V18.6035H59.7285V0.253906Z" fill="#212121"/>
<path d="M70.2908 16.1906C68.9705 16.1906 68.0274 15.5556 67.3987 14.3493L75.4463 10.9841L75.1948 10.2857C74.6918 8.95233 73.1829 6.4126 70.0393 6.4126C66.9586 6.4126 64.3809 8.88884 64.3809 12.508C64.3809 15.9366 66.8957 18.6033 70.3537 18.6033C73.12 18.6033 74.6918 16.889 75.3205 15.9366L73.3086 14.5398C72.5542 15.5556 71.674 16.1906 70.2908 16.1906ZM70.1022 8.76185C71.171 8.76185 72.0512 9.3333 72.3656 10.0952L66.9586 12.381C66.9586 9.77775 68.7819 8.76185 70.1022 8.76185Z" fill="#212121"/>
</svg>
