<svg width="88" height="24" viewBox="0 0 88 24" fill="none" xmlns="http://www.w3.org/2000/svg">
<path d="M2.176 0.608398H0V23.0084H1.408V4.7364H1.536L11.424 23.3924H12L22.112 4.8644H22.24V23.0084H25.152V0.608398H22.944L12.576 19.8404H12.448L2.176 0.608398Z" fill="#212121"/>
<path d="M34.1237 0.608398V23.0084H37.0358V0.608398H34.1237Z" fill="#212121"/>
<path d="M46 0.608398V23.0084H48.912V13.1204H50.32C50.9173 13.1204 51.408 13.1737 51.792 13.2804C52.1973 13.3871 52.56 13.5684 52.88 13.8244C53.2 14.0804 53.4987 14.4111 53.776 14.8164C54.0533 15.2217 54.384 15.7231 54.768 16.3204L57.296 20.0644C57.616 20.5551 57.9253 21.0031 58.224 21.4084C58.544 21.8137 58.8853 22.1657 59.248 22.4644C59.6107 22.7417 60.016 22.9657 60.464 23.1364C60.9333 23.3071 61.488 23.3924 62.128 23.3924C62.5973 23.3924 62.9813 23.3711 63.28 23.3284C63.5787 23.2857 63.8773 23.1791 64.176 23.0084V21.8244C64.0693 21.8457 63.9627 21.8671 63.856 21.8884C63.7493 21.8884 63.6427 21.8884 63.536 21.8884C63.088 21.8884 62.6933 21.8244 62.352 21.6964C62.0107 21.5684 61.6907 21.3871 61.392 21.1524C61.0933 20.8964 60.8053 20.5977 60.528 20.2564C60.2507 19.8937 59.9627 19.4884 59.664 19.0404C58.768 17.7391 58.0747 16.7044 57.584 15.9364C57.0933 15.1471 56.6987 14.5391 56.4 14.1124C56.1227 13.6857 55.888 13.3764 55.696 13.1844C55.5253 12.9924 55.312 12.8324 55.056 12.7044L54.736 12.5444V12.4164C55.76 12.3524 56.6347 12.1284 57.36 11.7444C58.1067 11.3604 58.7147 10.8804 59.184 10.3044C59.6533 9.7284 59.9947 9.10973 60.208 8.4484C60.4213 7.76573 60.528 7.1044 60.528 6.4644C60.528 5.8884 60.4107 5.25907 60.176 4.5764C59.9627 3.89373 59.5787 3.2644 59.024 2.6884C58.4907 2.09107 57.7547 1.6004 56.816 1.2164C55.8773 0.811065 54.6933 0.608398 53.264 0.608398H46ZM48.912 2.0164H52.144C52.9547 2.0164 53.68 2.13373 54.32 2.3684C54.9813 2.60307 55.5467 2.93373 56.016 3.3604C56.4853 3.76573 56.8373 4.2564 57.072 4.8324C57.328 5.4084 57.456 6.03773 57.456 6.7204C57.456 7.2964 57.3387 7.88307 57.104 8.4804C56.8907 9.0564 56.56 9.58973 56.112 10.0804C55.664 10.5497 55.1093 10.9337 54.448 11.2324C53.808 11.5311 53.0613 11.6804 52.208 11.6804H48.912V2.0164Z" fill="#212121"/>
<path d="M81.4167 16.4164L84.4888 23.0084H87.5928L77.1608 0.608398H75.5607L66.0887 23.0084H67.5607L70.3768 16.4164H81.4167ZM80.7448 14.9764H70.9848L75.5928 4.1924H75.7207L80.7448 14.9764Z" fill="#212121"/>
</svg>
